<svg width="32" height="32" viewBox="0 0 32 32" fill="none" xmlns="http://www.w3.org/2000/svg">
  <!-- Soft glow background / shadow -->
  <path d="M6 3H26C27.1046 3 28 3.89543 28 5V27L25.8 25.2L23.6 27L21.4 25.2L19.2 27L17 25.2L14.8 27L12.6 25.2L10.4 27L8.2 25.2L6 27V5C6 3.89543 6.89543 3 8 3Z" fill="url(#parchiGrad)" />
  
  <!-- Subtle inner gradient border overlay -->
  <path d="M8 4H24C24.5523 4 25 4.44772 25 5V23.5L23.5 22.3L22 23.5L20.5 22.3L19 23.5L17.5 22.3L16 23.5L14.5 22.3L13 23.5L11.5 22.3L10 23.5L8.5 22.3L7 23.5V5C7 4.44772 7.44772 4 8 4Z" fill="white" opacity="0.15" />

  <!-- Slip Content Lines -->
  <!-- Header block -->
  <rect x="10" y="8" width="12" height="2" rx="1" fill="white" opacity="0.9" />
  
  <!-- Content lines (Items + Values) -->
  <rect x="10" y="13" width="7" height="1.5" rx="0.75" fill="white" opacity="0.7" />
  <circle cx="22" cy="13.75" r="1" fill="white" opacity="0.7" />

  <rect x="10" y="17" width="9" height="1.5" rx="0.75" fill="white" opacity="0.7" />
  <circle cx="22" cy="17.75" r="1" fill="white" opacity="0.7" />

  <!-- Total divider line -->
  <line x1="10" y1="21" x2="22" y2="21" stroke="white" stroke-width="1" stroke-linecap="round" opacity="0.5" stroke-dasharray="1 1.5" />

  <!-- Total line -->
  <rect x="10" y="23" width="5" height="1.5" rx="0.75" fill="white" opacity="0.9" />
  <rect x="18" y="23" width="4" height="1.5" rx="0.75" fill="white" opacity="0.9" />

  <!-- Defs for Gradient -->
  <defs>
    <linearGradient id="parchiGrad" x1="6" y1="3" x2="28" y2="27" gradientUnits="userSpaceOnUse">
      <stop stop-color="#0066cc" />
      <stop offset="0.5" stop-color="#4f46e5" />
      <stop offset="1" stop-color="#7c3aed" />
    </linearGradient>
  </defs>
</svg>
